<?xml version="1.0" encoding="iso-8859-1"?>
<!-- Uploaded to: SVG Repo, www.svgrepo.com, Generator: SVG Repo Mixer Tools -->
<svg height="800px" width="800px" version="1.1" id="Layer_1" xmlns="http://www.w3.org/2000/svg" xmlns:xlink="http://www.w3.org/1999/xlink" 
	 viewBox="0 0 512.001 512.001" xml:space="preserve">
<g>
	<polygon style="fill:#D12D4E;" points="94.043,152.002 417.961,152.002 435.01,152.002 428.629,96.333 256.002,96.333 
		83.376,96.333 76.992,152.002 	"/>
	<path style="fill:#FCD051;" d="M413.526,197.435l4.435-45.433H94.043l34.098,349.331h255.724L413.526,197.435L413.526,197.435z
		 M212.469,351.801c-17.834-30.89-12.801-67.183,11.239-81.062c24.043-13.881,57.992-0.096,75.827,30.794
		c17.835,30.89,12.802,67.183-11.244,81.062C264.251,396.478,230.304,382.691,212.469,351.801z"/>
	<g>
		<path style="fill:#D12D4E;" d="M299.535,301.531c-17.835-30.89-51.783-44.674-75.827-30.794
			c8.751,62.951,64.28,65.199,64.583,111.856C312.337,368.714,317.37,332.421,299.535,301.531z"/>
		<path style="fill:#D12D4E;" d="M288.291,382.595c-0.303-46.657-55.833-48.906-64.583-111.856
			c-24.04,13.881-29.073,50.172-11.239,81.062C230.304,382.691,264.251,396.478,288.291,382.595z"/>
	</g>
</g>
<g>
	<path style="fill:#000003;" d="M445.608,150.787l-6.381-55.668c-0.617-5.388-5.176-9.452-10.598-9.452H267.076l1.292-34.553
		l71.281-30.642c5.412-2.328,7.913-8.602,5.585-14.014c-2.327-5.413-8.598-7.913-14.014-5.588l-77.475,33.307
		c-3.784,1.627-6.293,5.286-6.447,9.401l-1.575,42.089H83.376c-5.421,0-9.981,4.065-10.598,9.45l-6.386,55.669
		c-0.346,3.021,0.613,6.046,2.638,8.317c2.023,2.269,4.92,3.567,7.961,3.567h7.374l33.158,339.699
		c0.533,5.465,5.127,9.632,10.616,9.632h255.722c5.49,0,10.083-4.167,10.616-9.632l29.508-302.317
		c0.211-0.84,0.336-1.712,0.336-2.617c0-0.186-0.018-0.367-0.028-0.55l3.34-34.215h7.374c3.041,0,5.936-1.298,7.961-3.567
		C444.995,156.833,445.955,153.808,445.608,150.787z M92.891,107h326.224l3.935,34.334h-5.091H94.043h-5.089L92.891,107z
		 M403.847,186.767h-72.975c-5.892,0-10.668,4.776-10.668,10.667c0,5.89,4.776,10.667,10.668,10.667h70.893l-27.58,282.564H137.817
		l-2.547-26.096h68.868c5.891,0,10.667-4.777,10.667-10.667c0-5.892-4.777-10.667-10.667-10.667h-70.951l-27.386-280.566h300.398
		L403.847,186.767z"/>
	<path style="fill:#000003;" d="M237.606,443.238h-0.409c-5.892,0-10.667,4.776-10.667,10.668c0,5.889,4.776,10.667,10.667,10.667
		h0.409c5.892,0,10.667-4.778,10.667-10.667C248.273,448.014,243.499,443.238,237.606,443.238z"/>
	<path style="fill:#000003;" d="M299.693,208.106h0.409c5.892,0,10.667-4.778,10.667-10.667c0-5.892-4.776-10.667-10.667-10.667
		h-0.409c-5.891,0-10.667,4.776-10.667,10.667C289.025,203.329,293.802,208.106,299.693,208.106z"/>
	<path style="fill:#000003;" d="M203.231,357.135c14.566,25.229,39.849,41.533,64.411,41.533c9.242,0,17.853-2.24,25.608-6.634
		c0.097-0.052,0.194-0.1,0.289-0.155c0.028-0.017,0.058-0.029,0.086-0.046c14.541-8.394,23.975-23.283,26.559-41.926
		c2.448-17.649-1.605-36.724-11.411-53.709c-14.566-25.229-39.851-41.533-64.415-41.533c-9.388,0-18.13,2.3-25.984,6.834
		c-0.016,0.009-0.03,0.019-0.046,0.029c-0.084,0.048-0.165,0.1-0.246,0.153c-14.371,8.425-23.697,23.231-26.262,41.745
		C189.372,321.075,193.424,340.15,203.231,357.135z M290.297,306.865c7.445,12.895,10.554,27.139,8.756,40.11
		c-0.703,5.067-2.139,9.662-4.213,13.664c-5.622-14.089-16.176-24.089-26.492-33.859c-13.361-12.655-27.134-25.702-32.625-49.604
		c2.737-0.773,5.62-1.176,8.636-1.176C261.44,276.001,279.471,288.116,290.297,306.865z M212.951,306.355
		c0.76-5.482,2.378-10.405,4.733-14.628c8.109,24.118,23.296,38.515,35.993,50.544c11.982,11.349,21.07,19.978,23.369,33.661
		c-2.962,0.923-6.105,1.401-9.404,1.401c-17.079,0-35.109-12.115-45.935-30.865C214.263,333.572,211.153,319.327,212.951,306.355z"
		/>
</g>
</svg>